<?xml version="1.0" encoding="iso-8859-1"?>
<!-- Uploaded to: SVG Repo, www.svgrepo.com, Generator: SVG Repo Mixer Tools -->
<!DOCTYPE svg PUBLIC "-//W3C//DTD SVG 1.1//EN" "http://www.w3.org/Graphics/SVG/1.1/DTD/svg11.dtd">
<svg fill="#000000" version="1.1" id="Capa_1" xmlns="http://www.w3.org/2000/svg" xmlns:xlink="http://www.w3.org/1999/xlink" 
	 width="800px" height="800px" viewBox="0 0 48.44 48.44" xml:space="preserve"
	>
<g>
	<g>
		<path d="M36.418,14.613h-5.104v-1.199h7.562c0.829,0,1.5-0.671,1.5-1.5c0-0.828-0.671-1.5-1.5-1.5H20.752
			c-0.829,0-1.5,0.672-1.5,1.5c0,0.829,0.671,1.5,1.5,1.5h7.563v1.199H13.84c-1.282-2.223-3.678-3.725-6.423-3.725
			C3.327,10.888,0,14.215,0,18.305c0,4.089,3.327,7.417,7.417,7.417c2.366,0,4.472-1.118,5.831-2.85l11.192,1.725v3.396
			c0,2.739,2.229,4.969,4.968,4.969h2.032v2.064h-3.813c-0.828,0-1.5,0.672-1.5,1.5s0.672,1.5,1.5,1.5h5.313h7.5h5.312
			c0.827,0,1.5-0.672,1.5-1.5s-0.673-1.5-1.5-1.5H41.94v-2.064h2.781c2.05,0,3.719-1.668,3.719-3.719v-2.609
			C48.439,20.005,43.047,14.613,36.418,14.613z M38.939,35.03h-4.5v-2.065h4.5V35.03z M7.416,22.722
			c-2.436,0-4.417-1.982-4.417-4.417c0-2.436,1.981-4.417,4.417-4.417c0.89,0,1.717,0.27,2.411,0.725H9.021
			c-1.562,0-2.833,1.271-2.833,2.834v1.084c0,1.861,1.32,3.417,3.146,3.734C8.752,22.548,8.107,22.722,7.416,22.722z"/>
	</g>
</g>
</svg>