<?xml version="1.0" encoding="iso-8859-1"?>
<!-- Uploaded to: SVG Repo, www.svgrepo.com, Generator: SVG Repo Mixer Tools -->
<!DOCTYPE svg PUBLIC "-//W3C//DTD SVG 1.1//EN" "http://www.w3.org/Graphics/SVG/1.1/DTD/svg11.dtd">
<svg fill="#000000" version="1.1" id="Capa_1" xmlns="http://www.w3.org/2000/svg" xmlns:xlink="http://www.w3.org/1999/xlink" 
	 width="800px" height="800px" viewBox="0 0 46.697 46.697"
	 xml:space="preserve">
<g>
	<path d="M46.457,28.059c-0.353-0.658-1.038-1.065-1.782-1.065H33.133l10.452-9.283c0.474-0.42,0.725-1.038,0.674-1.667
		c-0.048-0.633-0.391-1.204-0.923-1.545L24.442,2.354c-0.624-0.4-1.414-0.427-2.064-0.074c-0.647,0.356-1.052,1.036-1.052,1.774
		v22.938h-1.348V4.055c0-1.117-0.905-2.022-2.022-2.022c-1.118,0-2.022,0.906-2.022,2.022v22.938H2.021
		c-0.745,0-1.43,0.407-1.783,1.065c-0.35,0.654-0.312,1.453,0.097,2.072l9.051,13.631c0.374,0.563,1.006,0.902,1.685,0.902h24.554
		c0.678,0,1.311-0.339,1.684-0.902l9.051-13.631C46.771,29.512,46.809,28.715,46.457,28.059z"/>
</g>
</svg>